<svg width="180" height="84" viewBox="0 0 180 84" fill="none" xmlns="http://www.w3.org/2000/svg">
<path d="M35.1729 76.039H36.2344V77.2452H35.7036C35.2212 77.4382 34.8834 77.7277 34.7869 78.1619C34.6904 78.5961 34.7387 79.0304 34.9317 79.4163C35.1247 79.8506 35.4142 80.0918 35.8001 80.2366H40.3837C40.5285 80.2366 40.625 80.0436 40.625 79.8023C40.625 79.5128 40.432 79.3681 40.0942 79.3198H38.4538C37.7301 79.2234 37.2958 78.8856 37.1511 78.3066C37.0063 77.7277 37.0063 77.1969 37.2958 76.7627C37.5371 76.3285 37.9713 76.039 38.5985 75.9907H42.6996C43.4233 75.9907 43.7611 76.3285 43.7611 77.0039V80.2366H44.2436V81.3945H42.4101V77.1969H38.7915C38.5503 77.2452 38.4538 77.3899 38.4538 77.6312C38.4538 77.8724 38.5985 78.0171 38.8398 78.0654H40.3355C41.1557 78.1619 41.6864 78.4514 41.8794 79.0304C42.0724 79.6093 42.0724 80.0918 41.8794 80.5743C41.6864 81.0568 41.2039 81.298 40.5285 81.4428H35.3177C34.5939 81.1533 34.0632 80.6708 33.7737 79.9953C33.4842 79.3198 33.436 78.5479 33.629 77.7277C33.822 76.9074 34.3527 76.3285 35.2694 75.9907M36.9099 81.9735C37.0063 81.9735 37.1511 81.9252 37.2958 81.9735C37.4406 81.9735 37.5371 82.0217 37.6336 82.1182C37.7301 82.2147 37.7783 82.3112 37.8266 82.4077C37.8266 82.5525 37.8748 82.649 37.8266 82.7937C37.8266 82.9385 37.7301 83.035 37.6336 83.1314C37.5371 83.2279 37.3923 83.2762 37.2476 83.2762C37.1028 83.2762 36.9581 83.2762 36.8134 83.1797C36.6686 83.1315 36.6204 83.035 36.5239 82.8902C36.4756 82.7937 36.4274 82.649 36.4756 82.5042C36.4756 82.3595 36.5239 82.263 36.6204 82.1665C36.6686 82.07 36.7651 81.9735 36.9099 81.9252M38.5503 81.9735C38.6468 81.9735 38.7915 81.9252 38.9363 81.9735C39.081 81.9735 39.1775 82.0217 39.274 82.1182C39.3705 82.2147 39.4188 82.3112 39.467 82.4077C39.467 82.5525 39.5153 82.649 39.467 82.7937C39.467 82.9385 39.3705 83.035 39.274 83.1314C39.1775 83.2279 39.0328 83.2762 38.888 83.2762C38.7433 83.2762 38.5985 83.2762 38.4538 83.1797C38.309 83.1315 38.2608 83.035 38.1643 82.8902C38.1161 82.7937 38.0678 82.649 38.1161 82.5042C38.1161 82.3595 38.1643 82.263 38.2608 82.1665C38.309 82.07 38.4055 81.9735 38.5503 81.9252" fill="#ffffff"/>
<path d="M44.533 76.0391H48.4411C49.5026 76.2803 50.1298 76.9075 50.3228 77.9207C50.4675 78.9339 50.3228 79.7059 49.7438 80.2849H51.0948V81.4429H44.147V80.2849H47.2832C48.2481 80.0919 48.7306 79.5612 48.7306 78.6927C48.7306 77.8242 48.3446 77.3418 47.5244 77.2453H46.077V78.2585H44.533V76.0391ZM46.6559 82.1666C46.7524 82.1666 46.8972 82.1183 47.0419 82.1666C47.1867 82.1666 47.2832 82.2148 47.3797 82.3113C47.4762 82.4078 47.5244 82.5043 47.5727 82.6008C47.6209 82.6973 47.6209 82.842 47.5727 82.9868C47.5727 83.1315 47.4762 83.228 47.3797 83.3245C47.2832 83.421 47.1384 83.4693 46.9937 83.4693C46.8489 83.4693 46.7042 83.4693 46.5594 83.3728C46.4147 83.3245 46.3664 83.228 46.27 83.0833C46.2217 82.9868 46.1735 82.8421 46.2217 82.6973C46.2217 82.5526 46.27 82.4561 46.3664 82.3596C46.4147 82.2631 46.5112 82.1666 46.6559 82.1183" fill="#ffffff"/>
<path d="M51.1913 76.0391H56.9811C57.5118 76.0391 57.8978 76.1356 58.2355 76.3285C58.525 76.5215 58.718 76.9075 58.8145 77.39V80.2849H59.2487V81.4429H50.8053V80.2849H51.9633C51.8185 80.1402 51.722 79.8024 51.6738 79.4164C51.6738 78.9822 51.6738 78.5962 51.8668 78.2102C52.0115 77.8242 52.301 77.5348 52.6387 77.2935H51.2395V76.0873L51.1913 76.0391ZM53.3142 78.741C53.1212 79.1269 53.1695 79.5129 53.4107 79.8507C53.6519 80.1884 53.9897 80.3331 54.4722 80.3331V78.2102C53.8932 78.2102 53.5072 78.355 53.3624 78.741M56.0161 77.2453V80.2849H57.2705V77.8242C57.2705 77.4383 57.0293 77.2453 56.5468 77.2453H56.0161Z" fill="#ffffff"/>
<path d="M59.5864 76.039H61.0821V80.2848H61.7093V81.4428H59.0557V80.2848H59.5864V76.039ZM60.0207 74.109C60.1172 74.109 60.2619 74.0608 60.4066 74.109C60.5514 74.109 60.6479 74.1573 60.7444 74.2538C60.8409 74.3503 60.8891 74.4468 60.9374 74.5433C60.9374 74.688 60.9856 74.7845 60.9374 74.9293C60.9374 75.074 60.8409 75.1705 60.7444 75.267C60.6479 75.3635 60.5031 75.4117 60.3584 75.4117C60.2136 75.4117 60.0689 75.4117 59.9242 75.3152C59.7794 75.267 59.7312 75.1705 59.6347 75.0258C59.5864 74.9293 59.5382 74.7845 59.5864 74.6398C59.5864 74.495 59.6347 74.3985 59.7312 74.302C59.7794 74.2055 59.8759 74.109 60.0207 74.0608" fill="#ffffff"/>
<path d="M62.0471 76.0391H65.2315C65.8587 76.1356 66.3412 76.3768 66.6789 76.811C67.0167 77.2453 67.2097 77.776 67.2097 78.4997C67.2097 79.1752 67.1132 79.8024 66.7754 80.3814C66.4377 80.9604 65.9552 81.2981 65.2315 81.4911H61.4681V80.3331H64.556C65.0867 80.1884 65.4245 79.8989 65.5692 79.4647C65.714 79.0304 65.7622 78.5962 65.6175 78.2102C65.4727 77.8242 65.1832 77.4865 64.7008 77.3418H63.5428V80.1884H61.9989V76.0873L62.0471 76.0391Z" fill="#ffffff"/>
<path d="M72.8064 82.9385H71.359L71.5037 79.0304H73.9161L72.8064 82.9385Z" fill="#ffffff"/>
<path d="M76.5698 76.039H77.6312V77.2452H77.1005C76.618 77.4382 76.2803 77.7277 76.1838 78.1619C76.0873 78.5961 76.1355 79.0304 76.3285 79.4163C76.5215 79.8506 76.811 80.0918 77.197 80.2366H81.7806C81.9253 80.2366 82.0218 80.0436 82.0218 79.8023C82.0218 79.5128 81.8288 79.3681 81.4911 79.3198H79.8506C79.1269 79.2234 78.6927 78.8856 78.5479 78.3066C78.4032 77.7277 78.4032 77.1969 78.6927 76.7627C78.9339 76.3285 79.3682 76.039 79.9954 75.9907H84.0965C84.8202 75.9907 85.1579 76.3285 85.1579 77.0039V80.2366H85.6404V81.3945H83.807V77.1969H80.1884C79.9471 77.2452 79.8506 77.3899 79.8506 77.6312C79.8506 77.8724 79.9954 78.0171 80.2366 78.0654H81.7323C82.5525 78.1619 83.0833 78.4514 83.2763 79.0304C83.4692 79.6093 83.4692 80.0918 83.2763 80.5743C83.0833 81.0568 82.6008 81.298 81.9253 81.4428H76.7145C75.9908 81.1533 75.4601 80.6708 75.1706 79.9953C74.8811 79.3198 74.8328 78.5479 75.0258 77.7277C75.2188 76.9074 75.7496 76.3285 76.6663 75.9907M78.3549 81.9735C78.4514 81.9735 78.5962 81.9252 78.7409 81.9735C78.8857 81.9735 78.9822 82.0217 79.0787 82.1182C79.1752 82.2147 79.2234 82.3112 79.2717 82.4077C79.2717 82.5525 79.3199 82.649 79.2717 82.7937C79.2717 82.9385 79.1752 83.035 79.0787 83.1314C78.9822 83.2279 78.8374 83.2762 78.6927 83.2762C78.5479 83.2762 78.4032 83.2762 78.2585 83.1797C78.1137 83.1315 78.0655 83.035 77.969 82.8902C77.9207 82.7937 77.8725 82.649 77.9207 82.5042C77.9207 82.3595 77.969 82.263 78.0655 82.1665C78.1137 82.07 78.2102 81.9735 78.3549 81.9252M79.9954 81.9735C80.0919 81.9735 80.2366 81.9252 80.3814 81.9735C80.5261 81.9735 80.6226 82.0217 80.7191 82.1182C80.8156 82.2147 80.8639 82.3112 80.9121 82.4077C80.9121 82.5525 80.9604 82.649 80.9121 82.7937C80.9121 82.9385 80.8156 83.035 80.7191 83.1314C80.6226 83.2279 80.4779 83.2762 80.3331 83.2762C80.1884 83.2762 80.0436 83.2762 79.8989 83.1797C79.7541 83.1315 79.7059 83.035 79.6094 82.8902C79.5612 82.7937 79.5129 82.649 79.5612 82.5042C79.5612 82.3595 79.6094 82.263 79.7059 82.1665C79.7541 82.07 79.8506 81.9735 79.9954 81.9252" fill="#ffffff"/>
<path d="M86.2194 75.9907H87.7151V80.5743C87.7151 80.8155 87.6669 81.0085 87.5221 81.2015C87.3774 81.3945 87.1844 81.491 86.8466 81.491H85.4474V80.3331H86.2194V75.9907ZM86.5089 82.6972C86.6054 82.6972 86.7501 82.649 86.8949 82.6972C87.0396 82.6972 87.1361 82.7455 87.2326 82.842C87.3291 82.9385 87.3774 83.035 87.4256 83.1314C87.4256 83.2762 87.4739 83.3727 87.4256 83.5174C87.4256 83.6622 87.3291 83.7587 87.2326 83.8552C87.1361 83.9517 86.9914 83.9999 86.8466 83.9999C86.7019 83.9999 86.5572 83.9999 86.4124 83.9034C86.2677 83.8552 86.2194 83.7587 86.1229 83.6139C86.0747 83.5174 86.0264 83.3727 86.0747 83.2279C86.0747 83.0832 86.1229 82.9867 86.2194 82.8902C86.2677 82.7937 86.3642 82.6972 86.5089 82.649" fill="#ffffff"/>
<path d="M90.4652 76.039H93.5049V80.2848H94.0356V81.4428H93.5049V81.9252C93.5049 82.4077 93.3119 82.7455 93.0706 82.9867C92.7811 83.2279 92.3952 83.3727 91.8644 83.3244H88.9695V82.1665H91.6232C91.7679 82.1665 91.8644 82.07 91.9609 81.9735C92.0092 81.877 92.0574 81.684 92.0574 81.4428H90.5617C89.8863 81.3463 89.4038 81.0568 89.066 80.5261C88.7283 79.9953 88.5353 79.4163 88.5353 78.7409C88.5353 78.0654 88.6801 77.4864 88.9695 76.9557C89.259 76.425 89.7898 76.0872 90.5135 75.9907M90.996 77.1969C90.4652 77.3417 90.1275 77.6794 89.9828 78.1136C89.8863 78.5961 89.8863 79.0304 90.0792 79.4646C90.2722 79.8988 90.5135 80.1401 90.803 80.2848H92.0092V77.1969H90.9477H90.996Z" fill="#ffffff"/>
<path d="M94.5181 73.1924H96.0138V80.2849H96.641V81.4911H93.9391V80.2849H94.5181V73.1924Z" fill="#ffffff"/>
<path d="M97.1235 76.0391H98.6192V80.2849H99.6324V76.0391H101.128V80.2849H102.093V76.0391H103.589V80.2849C103.589 80.6709 103.492 80.9604 103.348 81.1534C103.203 81.3464 102.913 81.4429 102.479 81.4429H96.448V80.2849H97.0753V76.0391H97.1235Z" fill="#ffffff"/>
<path d="M104.65 70.5869H106.146V70.9729H104.988C104.843 70.9729 104.747 71.0211 104.747 71.1659C104.747 71.3106 104.795 71.3589 104.94 71.3589H105.567C106.049 71.3589 106.291 71.5519 106.291 71.9861C106.291 72.4203 106.146 72.6133 105.808 72.6133H104.216V72.1791H105.422C105.567 72.1791 105.615 72.1309 105.663 72.0344C105.663 71.9379 105.663 71.8414 105.567 71.7931H104.554C104.216 71.7931 104.071 71.6001 104.071 71.2141C104.071 70.8282 104.264 70.6352 104.65 70.5869ZM104.361 73.1923H105.808V81.491H104.361V73.1923Z" fill="#ffffff"/>
<path d="M111.405 82.9385H109.957L110.102 79.0304H112.515L111.405 82.9385Z" fill="#ffffff"/>
<path d="M115.217 76.039H116.278V77.2452H115.747C115.265 77.4382 114.927 77.7277 114.831 78.1619C114.734 78.5961 114.782 79.0304 114.975 79.4163C115.168 79.8506 115.458 80.0918 115.844 80.2366H120.427C120.572 80.2366 120.669 80.0436 120.669 79.8023C120.669 79.5128 120.476 79.3681 120.138 79.3198H118.497C117.774 79.2234 117.291 78.8374 117.146 78.2584C117.002 77.6794 117.05 77.1487 117.339 76.7144C117.581 76.2802 118.015 76.039 118.642 75.9907H121.923V77.1969H118.787C118.546 77.2452 118.449 77.3899 118.449 77.6312C118.449 77.8724 118.594 78.0171 118.835 78.0654H120.331C121.151 78.1619 121.682 78.4514 121.875 79.0304C122.068 79.6093 122.068 80.0918 121.875 80.5743C121.682 81.0568 121.199 81.298 120.524 81.4428H115.313C114.589 81.1533 114.059 80.6708 113.769 79.9953C113.48 79.3198 113.431 78.5479 113.624 77.7277C113.817 76.9074 114.348 76.3285 115.265 75.9907M116.953 81.9735C117.05 81.9735 117.195 81.9252 117.339 81.9735C117.484 81.9735 117.581 82.0217 117.677 82.1182C117.774 82.2147 117.822 82.3112 117.87 82.4077C117.87 82.5525 117.918 82.649 117.87 82.7937C117.87 82.9385 117.774 83.035 117.677 83.1314C117.581 83.2279 117.436 83.2762 117.291 83.2762C117.146 83.2762 117.002 83.2762 116.857 83.1797C116.712 83.1315 116.664 83.035 116.567 82.8902C116.519 82.7937 116.471 82.649 116.519 82.5042C116.519 82.3595 116.567 82.263 116.664 82.1665C116.712 82.07 116.809 81.9735 116.953 81.9252M118.642 81.9735C118.739 81.9735 118.883 81.9252 119.028 81.9735C119.173 81.9735 119.269 82.0217 119.366 82.1182C119.462 82.2147 119.511 82.3112 119.559 82.4077C119.559 82.5525 119.607 82.649 119.559 82.7937C119.559 82.9385 119.462 83.035 119.366 83.1314C119.269 83.2279 119.125 83.2762 118.98 83.2762C118.835 83.2762 118.69 83.2762 118.546 83.1797C118.401 83.1315 118.353 83.035 118.256 82.8902C118.208 82.7937 118.16 82.649 118.208 82.5042C118.208 82.3595 118.256 82.263 118.353 82.1665C118.401 82.07 118.497 81.9735 118.642 81.9252" fill="#ffffff"/>
<path d="M124.287 73.1924H122.84V81.4911H124.287V73.1924Z" fill="#ffffff"/>
<path d="M126.941 76.039H129.98V80.2848H130.511V81.4428H129.98V81.9252C129.98 82.4077 129.787 82.7455 129.546 82.9867C129.257 83.2279 128.871 83.3727 128.34 83.3244H125.445V82.1665H128.099C128.244 82.1665 128.34 82.07 128.437 81.9735C128.485 81.877 128.533 81.684 128.533 81.4428H127.037C126.362 81.3463 125.879 81.0568 125.542 80.5261C125.204 79.9953 125.011 79.4163 125.011 78.7409C125.011 78.0654 125.156 77.4864 125.445 76.9557C125.735 76.425 126.265 76.0872 126.989 75.9907M127.423 77.1969C126.893 77.3417 126.555 77.6794 126.41 78.1136C126.314 78.5961 126.314 79.0304 126.507 79.4646C126.7 79.8988 126.941 80.1401 127.23 80.2848H128.437V77.1969H127.375H127.423Z" fill="#ffffff"/>
<path d="M131.283 76.0391H132.779V80.285H133.696V81.4429H130.366V80.285H131.283V76.0391ZM131.814 71.9863C131.91 71.938 132.055 71.938 132.2 71.938C132.345 71.938 132.441 71.9863 132.538 72.0828C132.634 72.1793 132.682 72.2758 132.731 72.3723C132.731 72.517 132.779 72.6135 132.731 72.7582C132.731 72.903 132.634 72.9995 132.538 73.096C132.441 73.1925 132.296 73.2407 132.152 73.2407C132.007 73.2407 131.862 73.2407 131.717 73.1442C131.573 73.096 131.524 72.9995 131.428 72.8547C131.38 72.7582 131.331 72.6135 131.38 72.4687C131.38 72.324 131.428 72.2275 131.524 72.131C131.573 72.0345 131.669 71.938 131.814 71.8898M131.814 73.9644C131.91 73.9162 132.055 73.9162 132.2 73.9162C132.345 73.9162 132.441 73.9644 132.538 74.0609C132.634 74.1574 132.682 74.2539 132.731 74.3504C132.731 74.4952 132.779 74.5917 132.731 74.7364C132.731 74.8812 132.634 74.9777 132.538 75.0742C132.441 75.1706 132.296 75.2189 132.152 75.2189C132.007 75.2189 131.862 75.2189 131.717 75.1224C131.573 75.0741 131.524 74.9777 131.428 74.8329C131.38 74.7364 131.331 74.5917 131.38 74.4469C131.38 74.3022 131.428 74.2057 131.524 74.1092C131.573 74.0127 131.669 73.9162 131.814 73.8679" fill="#ffffff"/>
<path d="M134.033 76.0391H137.941C139.003 76.2803 139.63 76.9075 139.823 77.9207C139.968 78.9339 139.823 79.7059 139.244 80.2849H140.595V81.4429H133.647V80.2849H136.783C137.748 80.0919 138.231 79.5612 138.231 78.6927C138.231 77.8242 137.845 77.3418 137.025 77.2453H135.577V78.2585H134.033V76.0391Z" fill="#ffffff"/>
<path d="M140.981 76.0391H144.165C144.793 76.1356 145.275 76.3768 145.613 76.811C145.951 77.2453 146.144 77.776 146.144 78.4997C146.144 79.1752 146.047 79.8024 145.709 80.3814C145.372 80.9604 144.889 81.2981 144.165 81.4911H140.402V80.3331H143.49C144.021 80.1884 144.358 79.8989 144.503 79.4647C144.648 79.0304 144.696 78.5962 144.551 78.2102C144.407 77.8242 144.117 77.4865 143.635 77.3418H142.477V80.1884H140.933V76.0873L140.981 76.0391Z" fill="#ffffff"/>
<path d="M14.2332 27.1637H9.07065C5.45204 25.7645 2.89489 23.4003 1.3992 20.0712C-0.144738 16.7421 -0.385979 12.9305 0.627232 8.73291C1.64044 4.53532 4.34234 1.64044 8.78117 0H13.992V6.12751H11.2418C8.73292 7.04423 7.23723 8.58817 6.75475 10.7593C6.27226 12.9305 6.5135 15.0534 7.43022 17.1281C8.34693 19.2028 9.79438 20.602 11.7243 21.2774H13.992C13.2682 22.0011 12.834 23.0144 12.834 24.0758C12.834 25.1373 13.3647 26.3917 14.2332 27.1155" fill="#ffffff"/>
<path d="M24.5101 27.1637H19.5887C20.4572 26.44 20.9879 25.3303 20.9879 24.1241C20.9879 22.9179 20.5537 22.0494 19.83 21.3257H24.2688C23.5451 22.0494 23.1109 23.0626 23.1109 24.1241C23.1109 25.1855 23.6416 26.44 24.5101 27.1637Z" fill="#ffffff"/>
<path d="M59.3935 27.1637H44.8225V6.12751H26.633C25.5233 6.417 24.9443 7.14072 24.9443 8.29868C24.9443 9.45663 25.5715 10.1804 26.7777 10.3733H34.2562C38.4538 10.8076 41.0109 12.3998 42.0241 15.1982C42.9891 17.9966 42.9891 20.5537 41.9759 22.8696C40.9627 25.1855 38.6468 26.5847 35.1246 27.1637H29.9621C30.8306 26.44 31.3613 25.3303 31.3613 24.1241C31.3613 22.9179 30.9271 22.0494 30.2033 21.3257H34.7387C35.5589 21.1809 35.9931 20.409 35.9931 19.1063C35.9931 17.7553 35.1246 16.9833 33.3395 16.6939H25.2338C21.7117 16.1631 19.5405 14.4262 18.7203 11.5313C17.9001 8.63641 18.0931 6.07927 19.3958 3.8116C20.6985 1.54394 22.8696 0.289489 25.9575 0H46.3665C49.9368 0 51.722 1.68868 51.722 5.1143V21.2774H59.1522C58.4285 22.0011 57.9943 23.0144 57.9943 24.0758C57.9943 25.1373 58.525 26.3917 59.3935 27.1155" fill="#ffffff"/>
<path d="M84.2895 13.7989C84 21.3256 80.7191 25.8127 74.4469 27.1154H64.749C65.6175 26.3917 66.1482 25.282 66.1482 24.0758C66.1482 22.8696 65.714 22.0011 64.9902 21.2774H69.2843C74.1574 20.4572 76.5698 17.9 76.5698 13.5577C76.5698 9.21536 74.5916 6.75471 70.6353 6.07923H63.1568V11.097H55.4854V0.0482178H74.6881C81.3463 1.68865 84.5307 6.27223 84.2412 13.7989" fill="#ffffff"/>
<path d="M179.531 12.255C179.387 8.82941 178.47 6.03102 176.781 3.9081C175.141 1.73693 172.777 0.434233 169.689 0H159.315C156.227 0 153.719 2.5089 153.719 5.59678V21.2774H150.92H148.99V4.29408C148.363 5.83802 146.916 6.89948 145.227 6.89948C143.538 6.89948 142.139 5.88627 141.464 4.39058V21.2774H139.63H137.362V6.80299C137.025 4.39058 136.06 2.65365 134.516 1.59219C132.972 0.530729 130.897 1.83333e-07 128.34 0.0482483H99.4877V6.07926H106.532C104.795 7.23722 103.492 8.78116 102.624 10.7111C101.804 12.641 101.466 14.6674 101.707 16.8386C101.9 19.0098 102.383 20.4572 103.155 21.2774H95.5313V0H88.1494V27.1154H138.906H152.126H169.833C173.404 26.1987 175.961 24.3171 177.505 21.5187C179.049 18.7203 179.773 15.5841 179.628 12.2068M115.603 21.2774C113.238 21.3257 111.453 20.5537 110.392 18.865C109.282 17.1763 109.137 15.3429 110.006 13.3647C110.874 11.3866 112.756 10.4698 115.603 10.7111V21.2774ZM129.691 21.2774H123.419V6.07926H126.072C128.437 6.07926 129.643 7.04423 129.691 8.97415V21.2774ZM171.377 16.9351C170.557 19.1545 168.868 20.602 166.215 21.2774H161.342V6.17576H167.035C169.496 7.04423 171.04 8.49167 171.667 10.5663C172.294 12.5928 172.198 14.7157 171.377 16.9351Z" fill="#ffffff"/>
<path d="M64.8938 24.2206C64.8938 25.7646 63.6393 27.019 62.0954 27.019C60.5514 27.019 59.297 25.7646 59.297 24.2206C59.297 22.6767 60.5514 21.4222 62.0954 21.4222C63.6393 21.4222 64.8938 22.6767 64.8938 24.2206Z" fill="#6EC9D8"/>
<path d="M30.1551 24.2206C30.1551 25.7646 28.9006 27.019 27.3567 27.019C25.8127 27.019 24.5583 25.7646 24.5583 24.2206C24.5583 22.6767 25.8127 21.4222 27.3567 21.4222C28.9006 21.4222 30.1551 22.6767 30.1551 24.2206Z" fill="#6EC9D8"/>
<path d="M19.7335 24.2206C19.7335 25.7646 18.4791 27.019 16.9351 27.019C15.3912 27.019 14.1367 25.7646 14.1367 24.2206C14.1367 22.6767 15.3912 21.4222 16.9351 21.4222C18.4791 21.4222 19.7335 22.6767 19.7335 24.2206Z" fill="#6EC9D8"/>
<path d="M147.977 2.84661C147.977 4.39055 146.723 5.645 145.179 5.645C143.635 5.645 142.38 4.39055 142.38 2.84661C142.38 1.30267 143.635 0.0482178 145.179 0.0482178C146.723 0.0482178 147.977 1.30267 147.977 2.84661Z" fill="#6EC9D8"/>
<path d="M33.6772 33.3877C33.0017 32.7605 32.1333 32.3262 31.1683 32.1815C30.2033 32.0368 29.2866 32.1815 28.3699 32.6157C27.4049 33.0982 26.6812 33.8702 26.1987 34.8834L19.83 49.7921C19.251 51.0465 18.7685 52.1562 18.3825 53.1694C17.9966 54.1826 17.6588 55.1476 17.4658 55.9678L15.0534 49.7921L8.49167 34.6904C8.25043 34.2079 7.96094 33.7737 7.6232 33.4359C7.28547 33.0982 6.89948 32.8087 6.417 32.5675C5.45204 32.085 4.48708 31.9403 3.52211 32.1332C3.03963 32.1815 2.55715 32.3262 2.12292 32.5192C1.68868 32.7122 1.3027 32.9535 1.01321 33.2912C0.337737 34.0632 0 34.9799 0 36.1378V67.0649C0 67.5956 0.24124 67.8851 0.675474 67.8851L6.80299 67.7404C7.28547 67.7404 7.52671 67.4991 7.52671 67.0167V55.8713L7.43021 48.3446L9.31189 53.9897L13.5577 64.8937C14.185 66.8719 15.4394 67.8851 17.3211 67.9334C19.1063 67.9334 20.3607 66.9684 21.0362 65.0385L25.2338 54.0379L27.0672 48.3929L26.9707 55.9196V67.0167C26.9707 67.4991 27.2119 67.7404 27.6944 67.7404H33.9667C34.1597 67.7404 34.3044 67.6921 34.4492 67.5956C34.5939 67.4991 34.6422 67.3544 34.6904 67.1131V36.3308C34.6904 35.1246 34.3527 34.1597 33.6772 33.4359" fill="#ffffff"/>
<path d="M44.6295 39.2257C42.6996 39.2257 41.1074 37.9712 40.6249 36.186V66.9201C40.6249 67.4026 40.8661 67.6438 41.3969 67.6438H47.8621C48.3929 67.6438 48.6341 67.4026 48.6341 66.9201V36.186C48.1516 37.923 46.5112 39.1774 44.6295 39.1774" fill="#ffffff"/>
<path d="M81.8288 32.6158H75.5083C75.0258 32.6158 74.8328 32.9052 74.8328 33.436V46.656L74.9293 53.7484L72.8547 50.3228L61.7576 34.2562C61.5164 33.8702 61.1786 33.5325 60.7926 33.2912C60.4067 33.05 59.9724 32.8087 59.4899 32.6158L56.7398 32.3745C55.5818 32.6158 54.6651 33.0982 54.1344 33.822C53.5554 34.5457 53.2659 35.5589 53.2659 36.7651V66.9202C53.2659 67.4027 53.5072 67.6439 53.9414 67.6439H60.3102C60.7926 67.6439 60.9856 67.4027 60.9856 66.9202V52.9765L60.8891 45.884L62.9156 49.2614L74.2539 65.7622C75.6531 67.7404 77.39 68.5606 79.4647 68.1746C81.5393 67.7886 82.5525 66.4377 82.5525 64.17V33.3877C82.5525 32.857 82.3113 32.5675 81.7806 32.5675" fill="#ffffff"/>
<path d="M115.796 32.6157H109.282C108.8 32.6157 108.607 32.857 108.607 33.3877V45.6427H95.0006V33.3877C95.0006 32.857 94.7593 32.6157 94.2769 32.6157H87.7151C87.2809 32.6157 87.0396 32.857 87.0396 33.3877V66.9684C87.0396 67.4509 87.2809 67.6921 87.7151 67.6921H94.2769C94.7593 67.6921 95.0006 67.4509 95.0006 66.9684V53.6037H108.607V66.9684C108.607 67.4509 108.848 67.6921 109.282 67.6921H115.796C116.278 67.6921 116.519 67.4509 116.519 66.9684V33.3877C116.519 32.857 116.278 32.6157 115.796 32.6157Z" fill="#ffffff"/>
<path d="M163.079 39.2258C161.101 39.2258 159.46 37.8748 159.026 35.9932V55.6302C159.026 57.5601 158.688 58.9593 157.964 59.7795C157.192 60.5515 155.745 61.1787 153.67 61.6129C153.091 61.6612 152.898 62.0472 153.188 62.6744L155.118 67.6439C155.262 68.0782 155.552 68.2712 155.986 68.1747C159.894 67.6439 162.644 66.5342 164.285 64.749C166.07 62.9639 166.987 60.262 166.987 56.6916V36.3791C166.408 38.0196 164.864 39.1293 163.079 39.1293" fill="#ffffff"/>
<path d="M175.671 39.2257C173.742 39.2257 172.149 37.923 171.667 36.1378V66.9201C171.667 67.4026 171.908 67.6438 172.439 67.6438H178.904C179.435 67.6438 179.676 67.4026 179.676 66.9201V36.2343C179.145 37.923 177.553 39.1775 175.671 39.1775" fill="#ffffff"/>
<path d="M150.1 32.0366H121.585C121.151 32.0366 120.91 32.3261 120.91 32.8568V66.92C120.91 67.4025 121.151 67.692 121.585 67.692H128.244C128.726 67.692 128.967 67.4508 128.967 66.92V53.8448H142.766V66.92C142.766 67.4025 143.007 67.692 143.49 67.692H150.1C150.631 67.692 150.872 67.4508 150.872 66.92V32.8568C150.872 32.3261 150.631 32.0366 150.1 32.0366ZM142.766 48.9717H128.967V40.0941H142.766V48.9717Z" fill="#ffffff"/>
<path d="M165.974 34.8351C165.974 36.4755 164.671 37.7782 163.03 37.7782C161.39 37.7782 160.087 36.4755 160.087 34.8351C160.087 33.1947 161.39 31.892 163.03 31.892C164.671 31.892 165.974 33.1947 165.974 34.8351Z" fill="#6EC9D8"/>
<path d="M47.5726 34.8351C47.5726 36.4755 46.2699 37.7782 44.6295 37.7782C42.9891 37.7782 41.6864 36.4755 41.6864 34.8351C41.6864 33.1947 42.9891 31.892 44.6295 31.892C46.2699 31.892 47.5726 33.1947 47.5726 34.8351Z" fill="#6EC9D8"/>
<path d="M178.566 34.8351C178.566 36.4755 177.264 37.7782 175.623 37.7782C173.983 37.7782 172.68 36.4755 172.68 34.8351C172.68 33.1947 173.983 31.892 175.623 31.892C177.264 31.892 178.566 33.1947 178.566 34.8351Z" fill="#6EC9D8"/>
</svg>
